    <svg viewBox="0 0 125.90763800664449 82.62688744186045" height="82.62688744186045" width="125.90763800664449">
      <g>
        <svg xmlns="http://www.w3.org/2000/svg" xmlns:xlink="http://www.w3.org/1999/xlink" version="1.1" x="0" y="0" viewBox="8 15 32 21" enable-background="new 0 0 48 48" xml:space="preserve" height="82.62688744186045" width="125.90763800664449" class="icon-icon-0" data-fill-palette-color="accent" id="icon-0">
          <circle cx="13" cy="18" r="3" fill="#0040f0" data-fill-palette-color="accent"></circle>
          <circle cx="35" cy="18" r="3" fill="#0040f0" data-fill-palette-color="accent"></circle>
          <path d="M35 23c-0.9 0-1.7 0.3-2.5 0.7l0 0-8.5 5-8.5-5 0 0C14.7 23.3 13.9 23 13 23c-2.8 0-5 2.2-5 5v8h10v-6.2l5 3c0 0 0 0 0 0 0.2 0.1 0.3 0.2 0.5 0.2 0.2 0 0.3 0.1 0.5 0.1 0 0 0 0 0 0s0 0 0 0c0.2 0 0.3 0 0.5-0.1 0.2 0 0.3-0.1 0.5-0.2 0 0 0 0 0 0l5-3V36h10v-8C40 25.2 37.8 23 35 23z" fill="#0040f0" data-fill-palette-color="accent"></path>
        </svg>
      </g>
    </svg>